<?plantuml 1.2026.2?><svg xmlns="http://www.w3.org/2000/svg" xmlns:xlink="http://www.w3.org/1999/xlink" contentStyleType="text/css" data-diagram-type="CLASS" height="1983px" preserveAspectRatio="none" style="width:3657px;height:1983px;" version="1.1" viewBox="0 0 3657 1983" width="3657px" zoomAndPan="magnify"><defs/><g><!--cluster CppPackage--><g class="cluster" data-qualified-name="CppPackage" data-source-line="8" id="ent0002"><path d="M25.5,18 L113.9971,18 A11.25,11.25 0 0 1 121.4971,25.5 L142.4971,86.8184 L2581.5,86.8184 A7.5,7.5 0 0 1 2589,94.3184 L2589,1566.87 A7.5,7.5 0 0 1 2581.5,1574.37 L25.5,1574.37 A7.5,7.5 0 0 1 18,1566.87 L18,25.5 A7.5,7.5 0 0 1 25.5,18" fill="none" style="stroke:#CCCCCC;stroke-width:4.5;"/><line style="stroke:#CCCCCC;stroke-width:4.5;" x1="18" x2="142.4971" y1="86.8184" y2="86.8184"/><text fill="#CCCCCC" font-family="sans-serif" font-size="42" font-weight="bold" lengthAdjust="spacing" textLength="85.4971" x="30" y="64.6875">CPP</text></g><!--cluster PythonPackage--><g class="cluster" data-qualified-name="PythonPackage" data-source-line="56" id="ent0018"><path d="M2668.5,37.98 L2817.4336,37.98 A11.25,11.25 0 0 1 2824.9336,45.48 L2845.9336,106.7984 L3628.5,106.7984 A7.5,7.5 0 0 1 3636,114.2984 L3636,1566.87 A7.5,7.5 0 0 1 3628.5,1574.37 L2668.5,1574.37 A7.5,7.5 0 0 1 2661,1566.87 L2661,45.48 A7.5,7.5 0 0 1 2668.5,37.98" fill="none" style="stroke:#CCCCCC;stroke-width:4.5;"/><line style="stroke:#CCCCCC;stroke-width:4.5;" x1="2661" x2="2845.9336" y1="106.7984" y2="106.7984"/><text fill="#CCCCCC" font-family="sans-serif" font-size="42" font-weight="bold" lengthAdjust="spacing" textLength="145.9336" x="2673" y="84.6675">Python</text></g><!--class BaseParticleSimulator--><g class="entity" data-qualified-name="CppPackage.BaseParticleSimulator" data-source-line="11" id="ent0003"><rect fill="#CCCCCC" height="285.7148" rx="7.5" ry="7.5" style="stroke:#AAAAAA;stroke-width:1.5;" width="1301.0698" x="456.48" y="508.86"/><ellipse cx="923.708" cy="547.86" fill="#A9DCDF" rx="24" ry="24" style="stroke:#181818;stroke-width:3;"/><path d="M912.5049,557.61 L920.708,533.61 L927.1299,533.61 L935.5674,557.61 L930.083,557.61 L928.2549,552.0319 L919.7237,552.0319 L917.9424,557.61 L912.5049,557.61 Z M920.9424,548.1881 L926.9893,548.1881 L926.2393,546.0319 Q925.6768,544.2037 925.0674,542.0475 Q924.5049,539.8912 923.8955,537.4537 Q923.2862,539.9381 922.7237,542.0944 Q922.1612,544.2037 921.6455,546.0319 L920.9424,548.1881 Z " fill="#000000"/><text fill="#333333" font-family="Verdana" font-size="33" font-style="italic" lengthAdjust="spacing" textLength="345.6138" x="971.708" y="559.8644">BaseParticleSimulator</text><line style="stroke:#AAAAAA;stroke-width:1.5;" x1="459.48" x2="1754.5498" y1="586.86" y2="586.86"/><line style="stroke:#AAAAAA;stroke-width:1.5;" x1="459.48" x2="1754.5498" y1="610.86" y2="610.86"/><g data-visibility-modifier="PUBLIC_METHOD"><ellipse cx="489.48" cy="645.8244" fill="#84BE84" rx="9" ry="9" style="stroke:#038048;stroke-width:3;"/></g><text fill="#333333" font-family="sans-serif" font-size="33" lengthAdjust="spacing" textLength="784.3945" x="507.48" y="654.8287">virtual std::size_t getObservableCount() const = 0;</text><g data-visibility-modifier="PUBLIC_METHOD"><ellipse cx="489.48" cy="685.7531" fill="#84BE84" rx="9" ry="9" style="stroke:#038048;stroke-width:3;"/></g><text fill="#333333" font-family="sans-serif" font-size="33" lengthAdjust="spacing" textLength="1232.0698" x="507.48" y="694.7575">virtual void observables(const Configuration &amp;, std::vector&lt;double&gt; &amp; out) = 0;</text><g data-visibility-modifier="PUBLIC_METHOD"><ellipse cx="489.48" cy="725.6818" fill="#84BE84" rx="9" ry="9" style="stroke:#038048;stroke-width:3;"/></g><text fill="#333333" font-family="sans-serif" font-size="33" lengthAdjust="spacing" textLength="859.9175" x="507.48" y="734.6862">void setInitialStateSampler(const BaseStateSampler &amp;);</text><g data-visibility-modifier="PUBLIC_METHOD"><ellipse cx="489.48" cy="765.6105" fill="#84BE84" rx="9" ry="9" style="stroke:#038048;stroke-width:3;"/></g><text fill="#333333" font-family="sans-serif" font-size="33" lengthAdjust="spacing" textLength="582.9463" x="507.48" y="774.6149">void setModel(const Model &amp; model);</text></g><!--class TreapParticleSimulator--><g class="entity" data-qualified-name="CppPackage.TreapParticleSimulator" data-source-line="18" id="ent0004"><rect fill="#CCCCCC" height="126" rx="7.5" ry="7.5" style="stroke:#AAAAAA;stroke-width:1.5;" width="433.7168" x="65.13" y="1034.49"/><ellipse cx="101.13" cy="1073.49" fill="#1A66C2" rx="24" ry="24" style="stroke:#181818;stroke-width:3;"/><path d="M101.7863,1085.8181 Q98.5988,1085.8181 96.0675,1084.365 Q93.5831,1082.9119 92.0831,1080.1462 Q90.63,1077.3806 90.63,1073.49 Q90.63,1069.5994 92.0831,1066.8337 Q93.5831,1064.0681 96.1144,1062.615 Q98.6456,1061.1619 101.7863,1061.1619 Q104.505,1061.1619 106.7081,1062.1931 Q108.9113,1063.1775 110.3175,1065.0994 Q111.7706,1066.9744 112.1456,1069.6931 L107.13,1069.6931 Q106.8019,1067.7244 105.3488,1066.6462 Q103.9425,1065.5212 101.88,1065.5212 Q99.0675,1065.5212 97.3331,1067.6306 Q95.6456,1069.6931 95.6456,1073.49 Q95.6456,1077.3806 97.38,1079.4431 Q99.1144,1081.4587 101.88,1081.4587 Q103.9425,1081.4587 105.3488,1080.3806 Q106.8019,1079.2556 107.1769,1077.2869 L112.1456,1077.2869 Q111.8644,1079.49 110.5519,1081.4587 Q109.2394,1083.3806 107.0363,1084.5994 Q104.8331,1085.8181 101.7863,1085.8181 Z " fill="#000000"/><text fill="#333333" font-family="Verdana" font-size="33" lengthAdjust="spacing" textLength="355.7168" x="134.13" y="1085.4944">TreapParticleSimulator</text><line style="stroke:#AAAAAA;stroke-width:1.5;" x1="68.13" x2="495.8468" y1="1112.49" y2="1112.49"/><line style="stroke:#AAAAAA;stroke-width:1.5;" x1="68.13" x2="495.8468" y1="1136.49" y2="1136.49"/></g><!--class ClassicalParticleSimulator--><g class="entity" data-qualified-name="CppPackage.ClassicalParticleSimulator" data-source-line="21" id="ent0005"><rect fill="#CCCCCC" height="126" rx="7.5" ry="7.5" style="stroke:#AAAAAA;stroke-width:1.5;" width="480.8481" x="602.58" y="1034.49"/><ellipse cx="638.58" cy="1073.49" fill="#1A66C2" rx="24" ry="24" style="stroke:#181818;stroke-width:3;"/><path d="M639.2363,1085.8181 Q636.0488,1085.8181 633.5175,1084.365 Q631.0331,1082.9119 629.5331,1080.1462 Q628.08,1077.3806 628.08,1073.49 Q628.08,1069.5994 629.5331,1066.8337 Q631.0331,1064.0681 633.5644,1062.615 Q636.0956,1061.1619 639.2363,1061.1619 Q641.955,1061.1619 644.1581,1062.1931 Q646.3613,1063.1775 647.7675,1065.0994 Q649.2206,1066.9744 649.5956,1069.6931 L644.58,1069.6931 Q644.2519,1067.7244 642.7988,1066.6462 Q641.3925,1065.5212 639.33,1065.5212 Q636.5175,1065.5212 634.7831,1067.6306 Q633.0956,1069.6931 633.0956,1073.49 Q633.0956,1077.3806 634.83,1079.4431 Q636.5644,1081.4587 639.33,1081.4587 Q641.3925,1081.4587 642.7988,1080.3806 Q644.2519,1079.2556 644.6269,1077.2869 L649.5956,1077.2869 Q649.3144,1079.49 648.0019,1081.4587 Q646.6894,1083.3806 644.4863,1084.5994 Q642.2831,1085.8181 639.2363,1085.8181 Z " fill="#000000"/><text fill="#333333" font-family="Verdana" font-size="33" lengthAdjust="spacing" textLength="402.8481" x="671.58" y="1085.4944">ClassicalParticleSimulator</text><line style="stroke:#AAAAAA;stroke-width:1.5;" x1="605.58" x2="1080.4281" y1="1112.49" y2="1112.49"/><line style="stroke:#AAAAAA;stroke-width:1.5;" x1="605.58" x2="1080.4281" y1="1136.49" y2="1136.49"/></g><!--class BaseStateSampler--><g class="entity" data-qualified-name="CppPackage.BaseStateSampler" data-source-line="24" id="ent0006"><rect fill="#CCCCCC" height="126" rx="7.5" ry="7.5" style="stroke:#AAAAAA;stroke-width:1.5;" width="368.2485" x="1189.89" y="1034.49"/><ellipse cx="1225.89" cy="1073.49" fill="#A9DCDF" rx="24" ry="24" style="stroke:#181818;stroke-width:3;"/><path d="M1214.6869,1083.24 L1222.89,1059.24 L1229.3119,1059.24 L1237.7494,1083.24 L1232.265,1083.24 L1230.4369,1077.6619 L1221.9056,1077.6619 L1220.1244,1083.24 L1214.6869,1083.24 Z M1223.1244,1073.8181 L1229.1712,1073.8181 L1228.4212,1071.6619 Q1227.8587,1069.8337 1227.2494,1067.6775 Q1226.6869,1065.5212 1226.0775,1063.0837 Q1225.4681,1065.5681 1224.9056,1067.7244 Q1224.3431,1069.8337 1223.8275,1071.6619 L1223.1244,1073.8181 Z " fill="#000000"/><text fill="#333333" font-family="Verdana" font-size="33" font-style="italic" lengthAdjust="spacing" textLength="290.2485" x="1258.89" y="1085.4944">BaseStateSampler</text><line style="stroke:#AAAAAA;stroke-width:1.5;" x1="1192.89" x2="1555.1385" y1="1112.49" y2="1112.49"/><line style="stroke:#AAAAAA;stroke-width:1.5;" x1="1192.89" x2="1555.1385" y1="1136.49" y2="1136.49"/></g><!--class BellPairStateSampler--><g class="entity" data-qualified-name="CppPackage.BellPairStateSampler" data-source-line="27" id="ent0007"><rect fill="#CCCCCC" height="126" rx="7.5" ry="7.5" style="stroke:#AAAAAA;stroke-width:1.5;" width="403.8428" x="914.07" y="1400.37"/><ellipse cx="950.07" cy="1439.37" fill="#1A66C2" rx="24" ry="24" style="stroke:#181818;stroke-width:3;"/><path d="M950.7262,1451.6981 Q947.5387,1451.6981 945.0075,1450.245 Q942.5231,1448.7919 941.0231,1446.0263 Q939.57,1443.2606 939.57,1439.37 Q939.57,1435.4794 941.0231,1432.7138 Q942.5231,1429.9481 945.0544,1428.495 Q947.5856,1427.0419 950.7262,1427.0419 Q953.445,1427.0419 955.6481,1428.0731 Q957.8512,1429.0575 959.2575,1430.9794 Q960.7106,1432.8544 961.0856,1435.5731 L956.07,1435.5731 Q955.7419,1433.6044 954.2887,1432.5263 Q952.8825,1431.4013 950.82,1431.4013 Q948.0075,1431.4013 946.2731,1433.5106 Q944.5856,1435.5731 944.5856,1439.37 Q944.5856,1443.2606 946.32,1445.3231 Q948.0544,1447.3388 950.82,1447.3388 Q952.8825,1447.3388 954.2887,1446.2606 Q955.7419,1445.1356 956.1169,1443.1669 L961.0856,1443.1669 Q960.8044,1445.37 959.4919,1447.3388 Q958.1794,1449.2606 955.9762,1450.4794 Q953.7731,1451.6981 950.7262,1451.6981 Z " fill="#000000"/><text fill="#333333" font-family="Verdana" font-size="33" lengthAdjust="spacing" textLength="325.8428" x="983.07" y="1451.3744">BellPairStateSampler</text><line style="stroke:#AAAAAA;stroke-width:1.5;" x1="917.07" x2="1314.9128" y1="1478.37" y2="1478.37"/><line style="stroke:#AAAAAA;stroke-width:1.5;" x1="917.07" x2="1314.9128" y1="1502.37" y2="1502.37"/></g><!--class ProductStateSampler--><g class="entity" data-qualified-name="CppPackage.ProductStateSampler" data-source-line="30" id="ent0008"><rect fill="#CCCCCC" height="126" rx="7.5" ry="7.5" style="stroke:#AAAAAA;stroke-width:1.5;" width="409.6597" x="1424.16" y="1400.37"/><ellipse cx="1460.16" cy="1439.37" fill="#1A66C2" rx="24" ry="24" style="stroke:#181818;stroke-width:3;"/><path d="M1460.8163,1451.6981 Q1457.6288,1451.6981 1455.0975,1450.245 Q1452.6131,1448.7919 1451.1131,1446.0263 Q1449.66,1443.2606 1449.66,1439.37 Q1449.66,1435.4794 1451.1131,1432.7138 Q1452.6131,1429.9481 1455.1444,1428.495 Q1457.6756,1427.0419 1460.8163,1427.0419 Q1463.535,1427.0419 1465.7381,1428.0731 Q1467.9413,1429.0575 1469.3475,1430.9794 Q1470.8006,1432.8544 1471.1756,1435.5731 L1466.16,1435.5731 Q1465.8319,1433.6044 1464.3788,1432.5263 Q1462.9725,1431.4013 1460.91,1431.4013 Q1458.0975,1431.4013 1456.3631,1433.5106 Q1454.6756,1435.5731 1454.6756,1439.37 Q1454.6756,1443.2606 1456.41,1445.3231 Q1458.1444,1447.3388 1460.91,1447.3388 Q1462.9725,1447.3388 1464.3788,1446.2606 Q1465.8319,1445.1356 1466.2069,1443.1669 L1471.1756,1443.1669 Q1470.8944,1445.37 1469.5819,1447.3388 Q1468.2694,1449.2606 1466.0663,1450.4794 Q1463.8631,1451.6981 1460.8163,1451.6981 Z " fill="#000000"/><text fill="#333333" font-family="Verdana" font-size="33" lengthAdjust="spacing" textLength="331.6597" x="1493.16" y="1451.3744">ProductStateSampler</text><line style="stroke:#AAAAAA;stroke-width:1.5;" x1="1427.16" x2="1830.8197" y1="1478.37" y2="1478.37"/><line style="stroke:#AAAAAA;stroke-width:1.5;" x1="1427.16" x2="1830.8197" y1="1502.37" y2="1502.37"/></g><!--class Model--><g class="entity" data-qualified-name="CppPackage.Model" data-source-line="33" id="ent0009"><rect fill="#CCCCCC" height="245.7861" rx="7.5" ry="7.5" style="stroke:#AAAAAA;stroke-width:1.5;" width="876.9521" x="1664.52" y="974.58"/><ellipse cx="2043.979" cy="1013.58" fill="#1A66C2" rx="24" ry="24" style="stroke:#181818;stroke-width:3;"/><path d="M2044.6352,1025.9081 Q2041.4477,1025.9081 2038.9165,1024.455 Q2036.4321,1023.0019 2034.9321,1020.2362 Q2033.479,1017.4706 2033.479,1013.58 Q2033.479,1009.6894 2034.9321,1006.9237 Q2036.4321,1004.1581 2038.9634,1002.705 Q2041.4946,1001.2519 2044.6352,1001.2519 Q2047.354,1001.2519 2049.5571,1002.2831 Q2051.7602,1003.2675 2053.1665,1005.1894 Q2054.6196,1007.0644 2054.9946,1009.7831 L2049.979,1009.7831 Q2049.6509,1007.8144 2048.1977,1006.7362 Q2046.7915,1005.6112 2044.729,1005.6112 Q2041.9165,1005.6112 2040.1821,1007.7206 Q2038.4946,1009.7831 2038.4946,1013.58 Q2038.4946,1017.4706 2040.229,1019.5331 Q2041.9634,1021.5487 2044.729,1021.5487 Q2046.7915,1021.5487 2048.1977,1020.4706 Q2049.6509,1019.3456 2050.0259,1017.3769 L2054.9946,1017.3769 Q2054.7134,1019.58 2053.4009,1021.5487 Q2052.0884,1023.4706 2049.8852,1024.6894 Q2047.6821,1025.9081 2044.6352,1025.9081 Z " fill="#000000"/><text fill="#333333" font-family="Verdana" font-size="33" lengthAdjust="spacing" textLength="97.0342" x="2091.979" y="1025.5844">Model</text><line style="stroke:#AAAAAA;stroke-width:1.5;" x1="1667.52" x2="2538.4721" y1="1052.58" y2="1052.58"/><line style="stroke:#AAAAAA;stroke-width:1.5;" x1="1667.52" x2="2538.4721" y1="1076.58" y2="1076.58"/><g data-visibility-modifier="PUBLIC_METHOD"><ellipse cx="1697.52" cy="1111.5444" fill="#84BE84" rx="9" ry="9" style="stroke:#038048;stroke-width:3;"/></g><text fill="#333333" font-family="sans-serif" font-size="33" lengthAdjust="spacing" textLength="321.3633" x="1715.52" y="1120.5488">Model(std::size_t N);</text><g data-visibility-modifier="PUBLIC_METHOD"><ellipse cx="1697.52" cy="1151.4731" fill="#84BE84" rx="9" ry="9" style="stroke:#038048;stroke-width:3;"/></g><text fill="#333333" font-family="sans-serif" font-size="33" lengthAdjust="spacing" textLength="701.0889" x="1715.52" y="1160.4775">void addRateMatrix(const std::string &amp; name,</text><text fill="#333333" font-family="sans-serif" font-size="33" lengthAdjust="spacing" textLength="807.9521" x="1715.52" y="1200.4062">const std::vector&lt;std::vector&lt;std::size_t&gt;&gt; &amp; sites);</text></g><!--class Runner--><g class="entity" data-qualified-name="CppPackage.Runner" data-source-line="39" id="ent0010"><rect fill="#CCCCCC" height="205.8574" rx="7.5" ry="7.5" style="stroke:#AAAAAA;stroke-width:1.5;" width="704.9912" x="754.5" y="123"/><ellipse cx="1040.792" cy="162" fill="#1A66C2" rx="24" ry="24" style="stroke:#181818;stroke-width:3;"/><path d="M1041.4482,174.3281 Q1038.2607,174.3281 1035.7295,172.875 Q1033.2451,171.4219 1031.7451,168.6562 Q1030.292,165.8906 1030.292,162 Q1030.292,158.1094 1031.7451,155.3437 Q1033.2451,152.5781 1035.7764,151.125 Q1038.3076,149.6719 1041.4482,149.6719 Q1044.167,149.6719 1046.3701,150.7031 Q1048.5732,151.6875 1049.9795,153.6094 Q1051.4326,155.4844 1051.8076,158.2031 L1046.792,158.2031 Q1046.4639,156.2344 1045.0107,155.1562 Q1043.6045,154.0312 1041.542,154.0312 Q1038.7295,154.0312 1036.9951,156.1406 Q1035.3076,158.2031 1035.3076,162 Q1035.3076,165.8906 1037.042,167.9531 Q1038.7764,169.9687 1041.542,169.9687 Q1043.6045,169.9687 1045.0107,168.8906 Q1046.4639,167.7656 1046.8389,165.7969 L1051.8076,165.7969 Q1051.5264,168 1050.2139,169.9687 Q1048.9014,171.8906 1046.6982,173.1094 Q1044.4951,174.3281 1041.4482,174.3281 Z " fill="#000000"/><text fill="#333333" font-family="Verdana" font-size="33" lengthAdjust="spacing" textLength="111.4072" x="1088.792" y="174.0044">Runner</text><line style="stroke:#AAAAAA;stroke-width:1.5;" x1="757.5" x2="1456.4912" y1="201" y2="201"/><line style="stroke:#AAAAAA;stroke-width:1.5;" x1="757.5" x2="1456.4912" y1="225" y2="225"/><g data-visibility-modifier="PUBLIC_METHOD"><ellipse cx="787.5" cy="259.9644" fill="#84BE84" rx="9" ry="9" style="stroke:#038048;stroke-width:3;"/></g><text fill="#333333" font-family="sans-serif" font-size="33" lengthAdjust="spacing" textLength="580.3682" x="805.5" y="268.9687">Runner(BaseParticleSimulator &amp; sim);</text><g data-visibility-modifier="PUBLIC_METHOD"><ellipse cx="787.5" cy="299.8931" fill="#84BE84" rx="9" ry="9" style="stroke:#038048;stroke-width:3;"/></g><text fill="#333333" font-family="sans-serif" font-size="33" lengthAdjust="spacing" textLength="635.9912" x="805.5" y="308.8975">void run(double T, std::size_t nSamples);</text></g><!--class GeneralizedRateMatrix--><g class="entity" data-qualified-name="PythonPackage.GeneralizedRateMatrix" data-source-line="57" id="ent0019"><rect fill="#CCCCCC" height="205.8574" rx="7.5" ry="7.5" style="stroke:#AAAAAA;stroke-width:1.5;" width="432.5728" x="2930.7" y="548.79"/><ellipse cx="2966.7" cy="587.79" fill="#1A66C2" rx="24" ry="24" style="stroke:#181818;stroke-width:3;"/><path d="M2967.3563,600.1181 Q2964.1688,600.1181 2961.6375,598.665 Q2959.1531,597.2119 2957.6531,594.4462 Q2956.2,591.6806 2956.2,587.79 Q2956.2,583.8994 2957.6531,581.1337 Q2959.1531,578.3681 2961.6844,576.915 Q2964.2156,575.4619 2967.3563,575.4619 Q2970.075,575.4619 2972.2781,576.4931 Q2974.4813,577.4775 2975.8875,579.3994 Q2977.3406,581.2744 2977.7156,583.9931 L2972.7,583.9931 Q2972.3719,582.0244 2970.9188,580.9462 Q2969.5125,579.8212 2967.45,579.8212 Q2964.6375,579.8212 2962.9031,581.9306 Q2961.2156,583.9931 2961.2156,587.79 Q2961.2156,591.6806 2962.95,593.7431 Q2964.6844,595.7587 2967.45,595.7587 Q2969.5125,595.7587 2970.9188,594.6806 Q2972.3719,593.5556 2972.7469,591.5869 L2977.7156,591.5869 Q2977.4344,593.79 2976.1219,595.7587 Q2974.8094,597.6806 2972.6063,598.8994 Q2970.4031,600.1181 2967.3563,600.1181 Z " fill="#000000"/><text fill="#333333" font-family="Verdana" font-size="33" lengthAdjust="spacing" textLength="354.5728" x="2999.7" y="599.7944">GeneralizedRateMatrix</text><line style="stroke:#AAAAAA;stroke-width:1.5;" x1="2933.7" x2="3360.2728" y1="626.79" y2="626.79"/><line style="stroke:#AAAAAA;stroke-width:1.5;" x1="2933.7" x2="3360.2728" y1="650.79" y2="650.79"/><g data-visibility-modifier="PUBLIC_METHOD"><ellipse cx="2963.7" cy="685.7544" fill="#84BE84" rx="9" ry="9" style="stroke:#038048;stroke-width:3;"/></g><text fill="#333333" font-family="sans-serif" font-size="33" lengthAdjust="spacing" textLength="344.0508" x="2981.7" y="694.7587">add_hamiltonian(ham)</text><g data-visibility-modifier="PUBLIC_METHOD"><ellipse cx="2963.7" cy="725.6831" fill="#84BE84" rx="9" ry="9" style="stroke:#038048;stroke-width:3;"/></g><text fill="#333333" font-family="sans-serif" font-size="33" lengthAdjust="spacing" textLength="338.395" x="2981.7" y="734.6875">add_noise(jump, rate)</text></g><!--class RateMatrix--><g class="entity" data-qualified-name="PythonPackage.RateMatrix" data-source-line="62" id="ent0020"><rect fill="#CCCCCC" height="165.9287" rx="7.5" ry="7.5" style="stroke:#AAAAAA;stroke-width:1.5;" width="245.3687" x="2709.33" y="1014.51"/><ellipse cx="2745.33" cy="1053.51" fill="#1A66C2" rx="24" ry="24" style="stroke:#181818;stroke-width:3;"/><path d="M2745.9863,1065.8381 Q2742.7988,1065.8381 2740.2675,1064.385 Q2737.7831,1062.9319 2736.2831,1060.1662 Q2734.83,1057.4006 2734.83,1053.51 Q2734.83,1049.6194 2736.2831,1046.8537 Q2737.7831,1044.0881 2740.3144,1042.635 Q2742.8456,1041.1819 2745.9863,1041.1819 Q2748.705,1041.1819 2750.9081,1042.2131 Q2753.1113,1043.1975 2754.5175,1045.1194 Q2755.9706,1046.9944 2756.3456,1049.7131 L2751.33,1049.7131 Q2751.0019,1047.7444 2749.5488,1046.6662 Q2748.1425,1045.5412 2746.08,1045.5412 Q2743.2675,1045.5412 2741.5331,1047.6506 Q2739.8456,1049.7131 2739.8456,1053.51 Q2739.8456,1057.4006 2741.58,1059.4631 Q2743.3144,1061.4787 2746.08,1061.4787 Q2748.1425,1061.4787 2749.5488,1060.4006 Q2751.0019,1059.2756 2751.3769,1057.3069 L2756.3456,1057.3069 Q2756.0644,1059.51 2754.7519,1061.4787 Q2753.4394,1063.4006 2751.2363,1064.6194 Q2749.0331,1065.8381 2745.9863,1065.8381 Z " fill="#000000"/><text fill="#333333" font-family="Verdana" font-size="33" lengthAdjust="spacing" textLength="167.3687" x="2778.33" y="1065.5144">RateMatrix</text><line style="stroke:#AAAAAA;stroke-width:1.5;" x1="2712.33" x2="2951.6987" y1="1092.51" y2="1092.51"/><g data-visibility-modifier="PUBLIC_FIELD"><ellipse cx="2742.33" cy="1127.4744" fill="none" rx="9" ry="9" style="stroke:#038048;stroke-width:3;"/></g><text fill="#333333" font-family="sans-serif" font-size="33" lengthAdjust="spacing" textLength="158.7158" x="2760.33" y="1136.4787">nsites : int</text><line style="stroke:#AAAAAA;stroke-width:1.5;" x1="2712.33" x2="2951.6987" y1="1156.4387" y2="1156.4387"/></g><!--class GeneralizedGaugeTransform--><g class="entity" data-qualified-name="PythonPackage.GeneralizedGaugeTransform" data-source-line="66" id="ent0021"><rect fill="#CCCCCC" height="165.9287" rx="7.5" ry="7.5" style="stroke:#AAAAAA;stroke-width:1.5;" width="529.8486" x="3059.07" y="1014.51"/><ellipse cx="3095.07" cy="1053.51" fill="#1A66C2" rx="24" ry="24" style="stroke:#181818;stroke-width:3;"/><path d="M3095.7263,1065.8381 Q3092.5388,1065.8381 3090.0075,1064.385 Q3087.5231,1062.9319 3086.0231,1060.1662 Q3084.57,1057.4006 3084.57,1053.51 Q3084.57,1049.6194 3086.0231,1046.8537 Q3087.5231,1044.0881 3090.0544,1042.635 Q3092.5856,1041.1819 3095.7263,1041.1819 Q3098.445,1041.1819 3100.6481,1042.2131 Q3102.8513,1043.1975 3104.2575,1045.1194 Q3105.7106,1046.9944 3106.0856,1049.7131 L3101.07,1049.7131 Q3100.7419,1047.7444 3099.2888,1046.6662 Q3097.8825,1045.5412 3095.82,1045.5412 Q3093.0075,1045.5412 3091.2731,1047.6506 Q3089.5856,1049.7131 3089.5856,1053.51 Q3089.5856,1057.4006 3091.32,1059.4631 Q3093.0544,1061.4787 3095.82,1061.4787 Q3097.8825,1061.4787 3099.2888,1060.4006 Q3100.7419,1059.2756 3101.1169,1057.3069 L3106.0856,1057.3069 Q3105.8044,1059.51 3104.4919,1061.4787 Q3103.1794,1063.4006 3100.9763,1064.6194 Q3098.7731,1065.8381 3095.7263,1065.8381 Z " fill="#000000"/><text fill="#333333" font-family="Verdana" font-size="33" lengthAdjust="spacing" textLength="451.8486" x="3128.07" y="1065.5144">GeneralizedGaugeTransform</text><line style="stroke:#AAAAAA;stroke-width:1.5;" x1="3062.07" x2="3585.9186" y1="1092.51" y2="1092.51"/><line style="stroke:#AAAAAA;stroke-width:1.5;" x1="3062.07" x2="3585.9186" y1="1116.51" y2="1116.51"/><g data-visibility-modifier="PUBLIC_METHOD"><ellipse cx="3092.07" cy="1151.4744" fill="#84BE84" rx="9" ry="9" style="stroke:#038048;stroke-width:3;"/></g><text fill="#333333" font-family="sans-serif" font-size="33" lengthAdjust="spacing" textLength="249.2402" x="3110.07" y="1160.4787">set(parameters)</text></g><!--class GaugeTransform--><g class="entity" data-qualified-name="PythonPackage.GaugeTransform" data-source-line="70" id="ent0022"><rect fill="#CCCCCC" height="126" rx="7.5" ry="7.5" style="stroke:#AAAAAA;stroke-width:1.5;" width="342.6445" x="3152.67" y="1400.37"/><ellipse cx="3188.67" cy="1439.37" fill="#1A66C2" rx="24" ry="24" style="stroke:#181818;stroke-width:3;"/><path d="M3189.3263,1451.6981 Q3186.1388,1451.6981 3183.6075,1450.245 Q3181.1231,1448.7919 3179.6231,1446.0263 Q3178.17,1443.2606 3178.17,1439.37 Q3178.17,1435.4794 3179.6231,1432.7138 Q3181.1231,1429.9481 3183.6544,1428.495 Q3186.1856,1427.0419 3189.3263,1427.0419 Q3192.045,1427.0419 3194.2481,1428.0731 Q3196.4513,1429.0575 3197.8575,1430.9794 Q3199.3106,1432.8544 3199.6856,1435.5731 L3194.67,1435.5731 Q3194.3419,1433.6044 3192.8888,1432.5263 Q3191.4825,1431.4013 3189.42,1431.4013 Q3186.6075,1431.4013 3184.8731,1433.5106 Q3183.1856,1435.5731 3183.1856,1439.37 Q3183.1856,1443.2606 3184.92,1445.3231 Q3186.6544,1447.3388 3189.42,1447.3388 Q3191.4825,1447.3388 3192.8888,1446.2606 Q3194.3419,1445.1356 3194.7169,1443.1669 L3199.6856,1443.1669 Q3199.4044,1445.37 3198.0919,1447.3388 Q3196.7794,1449.2606 3194.5763,1450.4794 Q3192.3731,1451.6981 3189.3263,1451.6981 Z " fill="#000000"/><text fill="#333333" font-family="Verdana" font-size="33" lengthAdjust="spacing" textLength="264.6445" x="3221.67" y="1451.3744">GaugeTransform</text><line style="stroke:#AAAAAA;stroke-width:1.5;" x1="3155.67" x2="3492.3145" y1="1478.37" y2="1478.37"/><line style="stroke:#AAAAAA;stroke-width:1.5;" x1="3155.67" x2="3492.3145" y1="1502.37" y2="1502.37"/></g><!--class lp_optimize--><g class="entity" data-qualified-name="PythonPackage.lp_optimize" data-source-line="73" id="ent0023"><rect fill="#CCCCCC" height="165.9287" rx="7.5" ry="7.5" style="stroke:#AAAAAA;stroke-width:1.5;" width="603.252" x="2845.38" y="142.98"/><ellipse cx="3048.3099" cy="181.98" fill="#FF7700" rx="24" ry="24" style="stroke:#181818;stroke-width:3;"/><path d="M3039.9662,193.98 L3039.9662,169.98 L3055.7631,169.98 L3055.7631,174.0581 L3044.8881,174.0581 L3044.8881,180.7612 L3054.7318,180.7612 L3054.7318,184.7456 L3044.8881,184.7456 L3044.8881,193.98 L3039.9662,193.98 Z " fill="#000000"/><text fill="#333333" font-family="Verdana" font-size="33" lengthAdjust="spacing" textLength="176.3921" x="3096.3099" y="193.9844">lp_optimize</text><line style="stroke:#AAAAAA;stroke-width:1.5;" x1="2848.38" x2="3445.632" y1="220.98" y2="220.98"/><line style="stroke:#AAAAAA;stroke-width:1.5;" x1="2848.38" x2="3445.632" y1="244.98" y2="244.98"/><text fill="#333333" font-family="sans-serif" font-size="33" lengthAdjust="spacing" textLength="567.252" x="2863.38" y="288.9487">(RateMatrix) -&gt; optimal_p, cost_func</text></g><!--reverse link BaseParticleSimulator to TreapParticleSimulator--><g class="link" data-entity-1="ent0003" data-entity-2="ent0004" data-link-type="extension" data-source-line="44" id="lnk11"><path codeLine="44" d="M794.8969,821.0904 C644.5669,901.2204 511.62,972.09 396.81,1033.29" fill="none" id="BaseParticleSimulator-backto-TreapParticleSimulator" style="stroke:#CCCCCC;stroke-width:3;"/><polygon fill="none" points="842.55,795.69,786.4301,805.206,803.3637,836.9748,842.55,795.69" style="stroke:#CCCCCC;stroke-width:3;"/></g><!--reverse link BaseParticleSimulator to ClassicalParticleSimulator--><g class="link" data-entity-1="ent0003" data-entity-2="ent0005" data-link-type="extension" data-source-line="45" id="lnk12"><path codeLine="45" d="M994.9421,841.3916 C946.6721,921.8216 916.32,972.36 879.51,1033.68" fill="none" id="BaseParticleSimulator-backto-ClassicalParticleSimulator" style="stroke:#CCCCCC;stroke-width:3;"/><polygon fill="none" points="1022.73,795.09,979.5083,832.129,1010.376,850.6542,1022.73,795.09" style="stroke:#CCCCCC;stroke-width:3;"/></g><!--reverse link BaseParticleSimulator to BaseStateSampler--><g class="link" data-entity-1="ent0003" data-entity-2="ent0006" data-link-type="aggregation" data-source-line="46" id="lnk13"><path codeLine="46" d="M1210.8853,825.8611 C1259.7253,906.2911 1299.84,972.36 1337.1,1033.68" fill="none" id="BaseParticleSimulator-backto-BaseStateSampler" style="stroke:#CCCCCC;stroke-width:3;"/><polygon fill="none" points="1192.2,795.09,1191.2856,816.704,1210.8853,825.8611,1211.7997,804.2471,1192.2,795.09" style="stroke:#CCCCCC;stroke-width:3;"/></g><!--reverse link BaseParticleSimulator to Model--><g class="link" data-entity-1="ent0003" data-entity-2="ent0009" data-link-type="aggregation" data-source-line="47" id="lnk14"><path codeLine="47" d="M1459.1933,810.2295 C1588.6433,867.3795 1703.73,918.18 1828.26,973.17" fill="none" id="BaseParticleSimulator-backto-Model" style="stroke:#CCCCCC;stroke-width:3;"/><polygon fill="none" points="1426.26,795.69,1437.8802,813.9375,1459.1933,810.2295,1447.5732,791.982,1426.26,795.69" style="stroke:#CCCCCC;stroke-width:3;"/></g><!--reverse link Runner to BaseParticleSimulator--><g class="link" data-entity-1="ent0010" data-entity-2="ent0003" data-link-type="aggregation" data-source-line="49" id="lnk15"><path codeLine="49" d="M1107,365.49 C1107,418.86 1107,449.31 1107,507.72" fill="none" id="Runner-backto-BaseParticleSimulator" style="stroke:#CCCCCC;stroke-width:3;"/><polygon fill="none" points="1107,329.49,1095,347.49,1107,365.49,1119,347.49,1107,329.49" style="stroke:#CCCCCC;stroke-width:3;"/></g><!--reverse link BaseStateSampler to BellPairStateSampler--><g class="link" data-entity-1="ent0006" data-entity-2="ent0007" data-link-type="extension" data-source-line="51" id="lnk16"><path codeLine="51" d="M1298.7735,1205.4318 C1251.3435,1271.6118 1207.5,1332.72 1159.98,1399.02" fill="none" id="BaseStateSampler-backto-BellPairStateSampler" style="stroke:#CCCCCC;stroke-width:3;"/><polygon fill="none" points="1330.23,1161.54,1284.1429,1194.9463,1313.4041,1215.9173,1330.23,1161.54" style="stroke:#CCCCCC;stroke-width:3;"/></g><!--reverse link BaseStateSampler to ProductStateSampler--><g class="link" data-entity-1="ent0006" data-entity-2="ent0008" data-link-type="extension" data-source-line="52" id="lnk17"><path codeLine="52" d="M1448.4785,1205.6014 C1495.3685,1271.7814 1538.55,1332.72 1585.53,1399.02" fill="none" id="BaseStateSampler-backto-ProductStateSampler" style="stroke:#CCCCCC;stroke-width:3;"/><polygon fill="none" points="1417.26,1161.54,1433.7913,1216.0076,1463.1656,1195.1952,1417.26,1161.54" style="stroke:#CCCCCC;stroke-width:3;"/></g><!--reverse link GeneralizedRateMatrix to RateMatrix--><g class="link" data-entity-1="ent0019" data-entity-2="ent0020" data-link-type="extension" data-source-line="77" id="lnk24"><path codeLine="77" d="M3043.2794,799.506 C2987.3294,877.596 2942.31,940.47 2890.26,1013.16" fill="none" id="GeneralizedRateMatrix-backto-RateMatrix" style="stroke:#CCCCCC;stroke-width:3;"/><polygon fill="none" points="3074.73,755.61,3028.6474,789.0224,3057.9114,809.9895,3074.73,755.61" style="stroke:#CCCCCC;stroke-width:3;"/></g><!--reverse link GeneralizedGaugeTransform to GaugeTransform--><g class="link" data-entity-1="ent0021" data-entity-2="ent0022" data-link-type="extension" data-source-line="78" id="lnk25"><path codeLine="78" d="M3324,1235.25 C3324,1301.16 3324,1338.87 3324,1398.9" fill="none" id="GeneralizedGaugeTransform-backto-GaugeTransform" style="stroke:#CCCCCC;stroke-width:3;"/><polygon fill="none" points="3324,1181.25,3306,1235.25,3342,1235.25,3324,1181.25" style="stroke:#CCCCCC;stroke-width:3;"/></g><!--reverse link GeneralizedRateMatrix to GeneralizedGaugeTransform--><g class="link" data-entity-1="ent0019" data-entity-2="ent0021" data-link-type="composition" data-source-line="80" id="lnk26"><path codeLine="80" d="M3201.0542,789.0094 C3232.4642,867.0994 3262.02,940.47 3291.27,1013.16" fill="none" id="GeneralizedRateMatrix-backto-GeneralizedGaugeTransform" style="stroke:#CCCCCC;stroke-width:3;"/><polygon fill="#CCCCCC" points="3187.62,755.61,3183.204,776.7878,3201.0542,789.0094,3205.4702,767.8317,3187.62,755.61" style="stroke:#CCCCCC;stroke-width:3;"/></g><!--link lp_optimize to GeneralizedRateMatrix--><g class="link" data-entity-1="ent0023" data-entity-2="ent0019" data-link-type="dependency" data-source-line="82" id="lnk27"><path codeLine="82" d="M3147,309.87 C3147,377.79 3147,457.08 3147,530.01" fill="none" id="lp_optimize-to-GeneralizedRateMatrix" style="stroke:#CCCCCC;stroke-width:3;stroke-dasharray:21,21;"/><polygon fill="#CCCCCC" points="3147,548.01,3159,521.01,3147,533.01,3135,521.01,3147,548.01" style="stroke:#CCCCCC;stroke-width:3;"/></g><g class="legend" data-source-line="85"><rect fill="none" height="296.0918" rx="22.5" ry="22.5" style="stroke:#CCCCCC;stroke-width:3;" width="1567.6963" x="1023.6519" y="1628.37"/><text fill="#CCCCCC" font-family="sans-serif" font-size="42" lengthAdjust="spacing" textLength="11.8125" x="1038.6519" y="1690.0575">&#160;</text><text fill="#CCCCCC" font-family="sans-serif" font-size="42" font-weight="bold" lengthAdjust="spacing" textLength="154.7314" x="1050.4644" y="1690.0575">Symbol</text><text fill="#CCCCCC" font-family="sans-serif" font-size="42" lengthAdjust="spacing" textLength="11.8125" x="1205.1958" y="1690.0575">&#160;</text><text fill="#CCCCCC" font-family="sans-serif" font-size="42" lengthAdjust="spacing" textLength="11.8125" x="1217.0083" y="1690.0575">&#160;</text><text fill="#CCCCCC" font-family="sans-serif" font-size="42" font-weight="bold" lengthAdjust="spacing" textLength="281.7979" x="1228.8208" y="1690.0575">Relation Type</text><text fill="#CCCCCC" font-family="sans-serif" font-size="42" lengthAdjust="spacing" textLength="11.8125" x="1510.6187" y="1690.0575">&#160;</text><text fill="#CCCCCC" font-family="sans-serif" font-size="42" lengthAdjust="spacing" textLength="11.8125" x="1522.4312" y="1690.0575">&#160;</text><text fill="#CCCCCC" font-family="sans-serif" font-size="42" font-weight="bold" lengthAdjust="spacing" textLength="178.7461" x="1534.2437" y="1690.0575">Meaning</text><text fill="#CCCCCC" font-family="sans-serif" font-size="42" lengthAdjust="spacing" textLength="11.8125" x="1712.9897" y="1690.0575">&#160;</text><text fill="#CCCCCC" font-family="sans-serif" font-size="42" lengthAdjust="spacing" textLength="77.1299" x="1050.4644" y="1740.8759">&#9665;--</text><text fill="#CCCCCC" font-family="sans-serif" font-size="42" lengthAdjust="spacing" textLength="222.0176" x="1228.8208" y="1740.8759">Inheritance</text><text fill="#CCCCCC" font-family="sans-serif" font-size="42" lengthAdjust="spacing" textLength="505.8047" x="1534.2437" y="1740.8759">Child inherits from Parent</text><text fill="#CCCCCC" font-family="sans-serif" font-size="42" lengthAdjust="spacing" textLength="82.7695" x="1050.4644" y="1791.6942">&#9671;--</text><text fill="#CCCCCC" font-family="sans-serif" font-size="42" lengthAdjust="spacing" textLength="244.043" x="1228.8208" y="1791.6942">Aggregation</text><text fill="#CCCCCC" font-family="sans-serif" font-size="42" lengthAdjust="spacing" textLength="1030.292" x="1534.2437" y="1791.6942">Uses but does not strictly own the memory lifecycle</text><text fill="#CCCCCC" font-family="sans-serif" font-size="42" lengthAdjust="spacing" textLength="82.7695" x="1050.4644" y="1842.5126">&#9670;--</text><text fill="#CCCCCC" font-family="sans-serif" font-size="42" lengthAdjust="spacing" textLength="249.8057" x="1228.8208" y="1842.5126">Composition</text><text fill="#CCCCCC" font-family="sans-serif" font-size="42" lengthAdjust="spacing" textLength="865.5527" x="1534.2437" y="1842.5126">Tightly coupled, owns the memory lifecycle</text><text fill="#CCCCCC" font-family="sans-serif" font-size="42" lengthAdjust="spacing" textLength="66.4248" x="1050.4644" y="1893.3309">&lt;--</text><text fill="#CCCCCC" font-family="sans-serif" font-size="42" lengthAdjust="spacing" textLength="252.4307" x="1228.8208" y="1893.3309">Dependency</text><text fill="#CCCCCC" font-family="sans-serif" font-size="42" lengthAdjust="spacing" textLength="952.6699" x="1534.2437" y="1893.3309">A function or class relies on another temporarily</text><line style="stroke:#CCCCCC;stroke-width:3;" x1="1038.6519" x2="2576.3481" y1="1649.37" y2="1649.37"/><line style="stroke:#CCCCCC;stroke-width:3;" x1="1038.6519" x2="2576.3481" y1="1700.1884" y2="1700.1884"/><line style="stroke:#CCCCCC;stroke-width:3;" x1="1038.6519" x2="2576.3481" y1="1751.0067" y2="1751.0067"/><line style="stroke:#CCCCCC;stroke-width:3;" x1="1038.6519" x2="2576.3481" y1="1801.8251" y2="1801.8251"/><line style="stroke:#CCCCCC;stroke-width:3;" x1="1038.6519" x2="2576.3481" y1="1852.6434" y2="1852.6434"/><line style="stroke:#CCCCCC;stroke-width:3;" x1="1038.6519" x2="2576.3481" y1="1903.4618" y2="1903.4618"/><line style="stroke:#CCCCCC;stroke-width:3;" x1="1038.6519" x2="1038.6519" y1="1649.37" y2="1903.4618"/><line style="stroke:#CCCCCC;stroke-width:3;" x1="1217.0083" x2="1217.0083" y1="1649.37" y2="1903.4618"/><line style="stroke:#CCCCCC;stroke-width:3;" x1="1522.4312" x2="1522.4312" y1="1649.37" y2="1903.4618"/><line style="stroke:#CCCCCC;stroke-width:3;" x1="2576.3481" x2="2576.3481" y1="1649.37" y2="1903.4618"/></g><?plantuml-src VLNTRXCx4BxtKmmWbKr88H8NI2L4Wg0YBWfH6wuZnplP6Fopihs5q731pJcFSDxlF0bZEwIRThStMNiytpVZ-SQJHs636a5lqvSnBxX2UCcUFlNVfAcvunhAMiBByPYncejll49uF15MMNScX9ZEvlF9YxITFWRkOLRNy-nsmnW3u2iV71S1XEBUmplkSSvTa4BXbTIDui6w6_9x1jVIXOOhyA4yE_Fo9ou3L1W-hpowQxvIEBED2SK0X3K-m1iOlpx2NLjPWZru-oBxpQnPowfnF4Xhu6IK-QzHKE19QHjodS89s2OCMfoHosFuQ6IGN5q57l2AwrgXszF6YxJDS38uXbxO4jNUEQqfY8vVyll5M2x7mY6lxzK3RcuzPl5NaYezNXtrFKghHVKE5R58rtS-TxPiHEWxJfV8KkMxjONwrBuzByjBuhZWmSaV-n9aPpAOYWfXkCOH0LfdUqNkhNE0QTJ8ou1-y1fkSxfiZC5z_-HrqTbX2QmZz92aQqoHvOV5wAZfJBwypq9ryqrsfwSzwZs4w5Up1sK9T5VJ1roJC8pbKXp0zuEnUtsIqklga1xNZcPXiLnTCs9EqyMQep6HJOT90Vls_O2KDrUaGwk389v7tQYlbXkkfGhMI6uAMWzQHyPAZyNNHjSZeEUEyUmNEt1t49hKKN06qeHZvrOY7tXJuS9nuzVMwGEMddYHvYC6TFvEh0vCwrJLIri7gOaT9XCepaVmvFpyrQlnU03Kw3b2SPll04wda11SBUbomlgmN3T6_ANjBblIwNP_x7Sdm-HxREid7aRVNgg8Qz_m-VDfDqzi5uKLcX9MDWIh2RY3uV1ggrTM3OTfSuagJ-x5jiQzxGAveJaITmdo_t-_AQCTV3GRT39m8v1siurK9IcRR1xMpcgWbu0c763_9jZRgd9OvIWx-EAf8rPDWDBImjWudfmKGMt1VZT0_vEWKLkt1INNABRqhWvy_oI-cTMrfSxAV0jPRI9Os8OUIJcABFuXcaaYUOyr5GQDs4RRMuXo9qPwwRcB72f96PA9KvPqImX8WHrtaiBj6C5pTTaV?></g></svg>